<?xml version="1.0" standalone="no"?>
<!DOCTYPE svg PUBLIC "-//W3C//DTD SVG 20010904//EN"
 "http://www.w3.org/TR/2001/REC-SVG-20010904/DTD/svg10.dtd">
<svg version="1.0" xmlns="http://www.w3.org/2000/svg"
 width="300.000000pt" height="160.000000pt" viewBox="0 0 300.000000 160.000000"
 preserveAspectRatio="xMidYMid meet">
<metadata>
Created by potrace 1.10, written by Peter Selinger 2001-2011
</metadata>
<g transform="translate(0.000000,160.000000) scale(0.100000,-0.100000)"
fill="#000000" stroke="none">
<path d="M1450 1580 c0 -19 -5 -20 -60 -16 -56 5 -83 -7 -42 -17 16 -4 16 -5
0 -6 -25 -1 -22 -16 7 -35 23 -15 25 -15 26 1 0 11 3 13 6 6 2 -7 9 -13 15
-13 6 0 3 11 -6 25 -16 24 -16 25 5 25 14 0 19 -5 16 -14 -3 -8 1 -20 9 -26
11 -10 14 -10 14 1 0 8 6 5 15 -7 14 -18 14 -17 15 14 0 24 4 32 18 32 14 0
14 -2 3 -9 -12 -7 -8 -15 17 -40 29 -29 22 -45 -8 -18 -12 10 -12 9 -1 -5 15
-20 46 -24 56 -8 4 6 1 17 -5 25 -7 9 -10 28 -7 44 6 29 6 29 -32 24 -23 -3
-41 -1 -45 6 -4 6 -2 11 4 11 6 0 8 5 5 10 -10 17 -25 11 -25 -10z"/>
<path d="M1635 1591 c-7 -12 12 -24 25 -16 6 3 10 1 10 -6 0 -8 -13 -10 -45
-6 -27 4 -45 3 -45 -3 0 -6 10 -11 23 -11 16 -1 18 -2 5 -6 -23 -6 -23 -15 2
-36 17 -14 20 -14 20 -2 0 8 5 15 11 15 5 0 8 -4 4 -9 -3 -5 -1 -12 5 -16 16
-10 12 22 -6 39 -14 15 -14 16 5 16 16 0 21 -6 21 -24 0 -14 5 -28 10 -31 6
-4 10 7 10 24 0 17 5 31 10 31 6 0 10 -5 10 -12 0 -9 3 -9 12 0 19 19 28 14
28 -12 0 -14 5 -28 10 -31 6 -4 10 7 10 24 0 28 3 31 32 31 25 0 29 -3 20 -12
-7 -7 -12 -16 -12 -22 0 -5 3 -6 7 -3 3 4 12 -1 19 -11 12 -15 13 -14 14 16 0
17 5 32 10 32 6 0 10 -8 8 -17 -2 -12 3 -18 14 -17 9 1 19 -5 22 -12 3 -8 1
-14 -5 -14 -6 0 -7 -5 -4 -10 4 -6 10 -8 15 -5 5 3 11 1 15 -5 3 -5 11 -10 18
-10 6 0 3 6 -8 13 -14 11 -17 23 -13 53 l5 39 -117 -2 c-105 -1 -120 0 -136
18 -19 21 -30 24 -39 10z"/>
<path d="M1083 1558 c-2 -5 0 -8 6 -8 6 0 8 -6 5 -14 -3 -7 6 -21 20 -30 26
-16 26 -16 26 14 0 16 5 30 10 30 6 0 10 -13 10 -30 0 -16 5 -30 11 -30 7 0
10 12 7 30 -3 19 0 30 8 30 6 0 11 -7 10 -16 -2 -26 22 -28 27 -2 3 17 5 15 6
-9 1 -41 21 -44 21 -3 0 17 0 33 0 36 0 9 -161 10 -167 2z"/>
<path d="M555 1431 c-49 -23 -79 -55 -94 -101 -17 -53 3 -180 28 -180 5 0 11
-11 13 -23 4 -23 2 -24 -41 -20 -102 9 -155 -72 -117 -177 7 -22 9 -47 5 -64
-10 -36 5 -74 34 -87 22 -10 23 -15 16 -52 -20 -103 1 -158 71 -187 l31 -13
-35 -28 -34 -29 20 -52 c15 -41 17 -57 9 -76 -12 -25 -2 -55 21 -66 7 -3 -39
-4 -102 -2 -84 3 -139 12 -203 30 -48 14 -90 26 -93 26 -11 0 57 -88 94 -122
l40 -36 -26 -11 c-50 -19 -107 -31 -152 -32 l-45 -1 34 -14 c19 -9 77 -27 130
-42 85 -23 115 -26 251 -27 135 0 165 3 230 24 41 12 92 32 114 43 l38 20 107
-36 c58 -19 153 -44 211 -56 119 -24 320 -39 320 -23 0 6 26 8 68 4 209 -17
431 10 623 78 l83 29 49 -24 c90 -46 190 -66 327 -67 69 -1 152 5 185 12 89
18 225 61 225 69 0 4 -24 9 -52 10 -43 2 -148 27 -148 36 0 1 21 25 48 52 26
28 56 65 66 84 19 33 19 33 0 25 -93 -39 -305 -72 -379 -58 -40 7 -40 7 -10
13 29 5 30 8 30 55 0 28 7 69 14 93 l14 43 -34 28 -34 29 35 14 c69 30 92 87
71 178 -7 32 -7 46 1 49 32 11 50 44 46 84 -3 23 1 59 9 81 17 50 17 80 -2
116 -21 40 -67 63 -120 58 -38 -3 -41 -1 -37 17 3 11 12 25 19 30 8 6 18 41
23 78 11 72 0 118 -38 161 -23 26 -90 56 -126 56 -33 0 -96 -20 -96 -31 0 -4
-18 -10 -41 -14 -38 -7 -40 -9 -37 -38 3 -31 5 -32 48 -32 34 0 45 -4 48 -17
3 -15 -4 -18 -37 -18 -46 0 -57 -24 -18 -40 12 -5 16 -9 10 -9 -7 -1 -30 -17
-52 -36 l-39 -35 -17 27 c-10 14 -18 45 -19 67 l-1 41 -50 8 c-33 6 -56 5 -67
-2 -17 -10 -18 -5 -18 57 l0 68 -82 -40 c-76 -38 -87 -41 -167 -41 -79 0 -93
3 -169 39 l-82 39 -50 -27 c-119 -65 -254 -66 -374 -3 -34 18 -63 33 -66 35
-4 1 -4 -28 -2 -64 4 -61 3 -66 -13 -60 -10 3 -40 3 -67 0 -53 -7 -76 -31 -60
-61 7 -11 3 -26 -10 -50 l-20 -33 -39 35 c-22 19 -45 35 -52 36 -6 0 -2 4 11
9 38 16 28 40 -18 40 -33 0 -40 3 -40 20 0 17 6 20 48 17 46 -2 47 -1 50 29 3
29 0 32 -33 38 -20 4 -52 16 -71 27 -43 24 -87 24 -139 0z m92 2 c-4 -3 -24
-9 -44 -12 -45 -7 -58 -42 -23 -61 l21 -11 -26 -30 c-26 -32 -32 -54 -15 -64
6 -3 10 -14 10 -23 0 -22 46 -66 60 -57 5 3 10 24 10 46 0 21 3 39 6 39 3 0
31 -7 62 -16 70 -20 92 -38 40 -32 -20 2 -34 0 -32 -4 3 -4 20 -8 39 -8 31 0
73 -26 61 -37 -3 -3 -26 0 -52 6 -25 7 -49 10 -51 7 -3 -3 15 -10 38 -16 58
-14 73 -23 78 -46 3 -14 0 -16 -10 -8 -17 13 -109 45 -109 38 0 -3 21 -14 48
-26 76 -33 78 -38 32 -65 -49 -30 -63 -26 -89 24 -24 46 -26 40 -6 -18 12 -34
13 -44 3 -51 -22 -14 -28 -9 -29 25 -1 17 -5 43 -10 57 -7 20 -8 16 -5 -19 5
-46 -1 -71 -15 -71 -5 0 -10 26 -11 58 -1 36 -3 44 -5 22 -9 -93 -32 -111 -35
-27 -1 48 -2 49 -5 10 -2 -23 -11 -47 -19 -53 -12 -11 -13 -3 -9 51 4 61 4 62
-5 16 -9 -53 -24 -77 -48 -77 -13 0 -12 3 3 20 16 17 48 149 39 159 -2 2 -7
-10 -10 -27 -4 -18 -11 -29 -16 -26 -5 4 -7 18 -3 33 3 14 8 35 11 46 2 11 -4
4 -15 -15 -19 -33 -20 -34 -21 -10 0 14 7 37 16 50 l16 25 -20 -22 c-31 -35
-37 -27 -12 15 19 32 20 35 3 20 -18 -17 -19 -16 -20 17 -1 19 5 39 12 45 8 6
12 17 9 25 -6 15 52 63 93 75 35 10 69 12 60 3z m1819 -24 c44 -27 63 -51 46
-57 -10 -3 -9 -7 4 -16 9 -7 18 -29 19 -50 3 -37 3 -38 -17 -19 -19 17 -19 16
2 -19 12 -21 17 -38 12 -38 -6 0 -12 -12 -14 -27 l-4 -28 -17 35 c-16 33 -16
29 -3 -32 3 -15 2 -29 -3 -32 -5 -4 -12 8 -16 25 -4 17 -9 29 -11 26 -9 -9 25
-139 41 -157 15 -17 16 -20 3 -20 -23 0 -37 22 -48 71 -9 43 -9 42 -5 -14 3
-50 2 -57 -11 -46 -8 6 -14 26 -14 43 0 17 -5 38 -11 46 -8 11 -9 -1 -5 -43 5
-45 3 -58 -6 -55 -7 3 -16 28 -19 59 l-6 54 -1 -58 c-2 -42 -6 -57 -14 -54 -9
3 -12 22 -11 58 2 38 0 48 -7 34 -5 -11 -9 -37 -9 -57 -1 -39 -6 -44 -30 -29
-13 8 -12 15 2 52 21 52 15 64 -8 16 -22 -47 -39 -52 -86 -24 -45 27 -43 32
35 66 27 12 47 23 44 26 -5 5 -68 -17 -101 -36 -15 -8 -18 -7 -15 7 4 21 20
30 77 44 58 15 46 23 -14 10 -26 -6 -50 -8 -54 -5 -11 12 32 35 65 35 18 0 35
4 38 8 2 4 -12 6 -32 4 -25 -3 -34 -1 -27 6 14 14 115 43 126 36 5 -3 9 -20 9
-39 0 -19 5 -37 11 -40 14 -9 44 24 63 70 17 39 15 47 -16 82 -20 21 -20 21 2
33 14 7 20 19 18 33 -2 17 -11 23 -38 25 -19 2 -39 8 -45 14 -17 17 66 -1 101
-23z m-1766 -4 c0 -17 -4 -18 -37 -9 -33 9 -28 24 7 24 20 0 30 -5 30 -15z
m864 -15 c139 -68 250 -64 409 18 4 2 7 -145 7 -327 0 -322 -1 -332 -24 -395
-65 -182 -220 -343 -398 -415 l-56 -22 -63 32 c-189 95 -330 238 -388 395 -19
49 -21 82 -24 394 -2 187 -1 340 1 340 3 0 28 -11 57 -25 109 -54 232 -52 349
4 33 16 63 30 65 30 2 1 31 -13 65 -29z m806 20 c0 -5 -3 -10 -7 -10 -5 0 -18
-3 -30 -6 -17 -5 -23 -2 -23 10 0 11 9 16 30 16 17 0 30 -4 30 -10z m-1739
-10 c5 0 18 -9 29 -20 16 -16 18 -25 10 -40 -6 -11 -7 -32 -4 -47 7 -27 7 -27
-17 -12 -15 10 -25 28 -27 47 -2 20 -10 33 -23 37 -19 6 -25 25 -12 39 4 3 13
4 21 1 7 -3 18 -5 23 -5z m1797 -13 c2 -10 -5 -18 -20 -22 -18 -5 -23 -13 -23
-37 0 -20 -7 -35 -22 -45 -22 -15 -22 -14 -22 18 1 19 0 39 -1 44 -6 25 2 37
33 50 37 17 51 15 55 -8z m-1668 -7 c0 -5 -8 -11 -17 -13 -14 -4 -13 -5 4 -6
12 0 25 -6 29 -12 4 -8 -4 -9 -27 -4 -71 14 -72 14 -47 34 21 17 58 18 58 1z
m1554 -21 c-3 -5 0 -9 5 -9 6 0 11 -8 11 -17 0 -15 -1 -15 -13 2 -11 14 -21
16 -51 11 -26 -5 -36 -4 -31 3 3 6 16 12 28 12 17 1 18 2 5 6 -10 2 -18 8 -18
13 0 5 8 10 18 13 19 4 54 -21 46 -34z m-1623 -23 c-19 -23 -2 -45 37 -48 28
-3 33 -6 19 -12 -26 -12 -64 1 -70 25 -7 25 1 49 15 49 7 0 6 -5 -1 -14z m-98
-43 c-9 -14 -19 -21 -21 -15 -5 16 17 53 28 47 6 -4 2 -17 -7 -32z m1837 18
c17 -33 11 -47 -10 -21 -11 14 -20 28 -20 33 0 14 20 7 30 -12z m-1436 -42 c7
-44 2 -59 -19 -59 -11 0 -75 -141 -75 -165 0 -3 -7 -22 -16 -43 l-15 -37 -20
44 c-23 52 -23 51 -4 51 14 0 15 35 0 72 -4 11 5 33 25 62 24 35 29 50 21 64
-13 25 2 46 28 39 12 -3 24 -1 27 4 3 5 13 9 23 9 14 0 20 -10 25 -41z m1070
32 c3 -4 18 -6 32 -3 26 5 27 3 21 -27 -5 -24 0 -41 23 -77 16 -26 27 -51 23
-57 -3 -5 -7 -25 -9 -43 -2 -24 2 -34 12 -34 18 0 18 -11 -1 -36 -8 -10 -15
-27 -15 -36 0 -37 -17 -16 -40 50 -52 152 -61 170 -80 175 -17 4 -19 12 -16
49 2 23 4 44 5 46 3 6 40 1 45 -7z m256 -16 c-14 -17 -56 -20 -65 -5 -4 6 8
10 29 10 21 0 36 5 36 12 0 6 3 8 6 5 4 -4 1 -13 -6 -22z m-1714 -29 c-6 -21
-14 -32 -20 -26 -10 10 12 72 24 65 4 -2 2 -20 -4 -39z m1811 -7 c1 -19 -1
-25 -4 -14 -10 39 -21 37 -16 -4 3 -25 2 -41 -5 -41 -14 0 -20 74 -7 88 17 19
30 7 32 -29z m-1796 -52 c-8 -8 -11 -1 -11 24 0 46 14 60 18 19 2 -18 -1 -37
-7 -43z m417 -546 c66 -155 239 -322 416 -400 l48 -21 59 24 c96 38 167 86
243 161 75 74 121 143 165 247 25 61 26 70 29 301 3 225 4 236 21 227 10 -5
29 -38 41 -72 13 -35 34 -91 47 -125 l24 -63 -38 -70 c-25 -45 -45 -70 -58
-72 -17 -3 -20 -11 -22 -53 0 -27 4 -56 9 -62 13 -16 100 -17 116 -1 7 7 12
23 12 37 1 16 17 43 40 69 l39 43 30 -42 c32 -44 38 -59 21 -59 -5 0 -10 -7
-10 -15 0 -8 -18 -26 -40 -40 -50 -32 -63 -56 -62 -122 0 -57 4 -54 -67 -57
-27 -1 -38 -8 -52 -31 -28 -48 -24 -73 16 -89 19 -8 35 -17 35 -20 0 -2 -38
-18 -85 -35 -236 -85 -548 -106 -825 -55 -84 15 -268 70 -283 83 -7 7 18 23
56 35 23 7 22 37 -4 81 -18 30 -27 36 -53 34 -65 -4 -66 -3 -66 54 0 62 -27
113 -65 123 -15 4 -31 19 -41 40 -15 32 -15 34 11 68 15 20 30 36 33 36 4 0
23 -17 44 -37 25 -24 38 -46 38 -63 0 -38 18 -50 72 -50 55 0 64 11 64 80 -1
37 -4 46 -21 48 -13 2 -35 28 -61 75 l-42 72 23 45 c12 25 35 82 50 127 18 52
34 83 44 85 14 3 17 -25 21 -242 5 -226 7 -249 28 -299z m-544 433 c22 -8 20
-37 -4 -59 -11 -10 -20 -13 -20 -7 0 18 -47 14 -54 -4 -7 -19 22 -124 34 -124
5 0 12 17 15 38 10 56 13 62 29 56 8 -3 17 -1 21 5 12 20 25 11 25 -17 0 -15
-13 -83 -30 -150 -34 -139 -37 -174 -15 -192 33 -27 60 -4 107 92 65 133 64
127 23 194 -19 33 -35 62 -35 65 0 4 25 7 55 8 30 0 62 4 72 9 10 5 34 16 53
26 34 17 35 17 52 -4 10 -12 20 -37 24 -57 10 -55 90 -187 116 -194 14 -3 21
-12 19 -20 -2 -8 -5 -25 -6 -39 -2 -23 -6 -25 -48 -26 -46 -2 -47 -1 -47 30 0
23 -12 43 -46 79 -26 27 -52 46 -60 43 -40 -15 -115 -157 -120 -227 -4 -58
-21 -94 -68 -144 -28 -30 -34 -42 -29 -65 3 -16 13 -30 24 -33 22 -6 25 -35 5
-43 -8 -3 -13 -11 -10 -19 11 -27 -73 -28 -96 0 -11 13 -4 45 11 45 5 0 -1 26
-13 57 l-21 57 42 37 c22 20 41 39 41 43 0 3 -14 6 -31 6 -22 0 -41 10 -66 35
-34 34 -35 38 -30 88 3 29 9 67 13 85 6 28 4 32 -14 32 -30 0 -45 25 -40 67 3
21 -1 55 -9 77 -21 61 -17 94 16 127 29 29 76 38 115 23z m2123 -14 c40 -24
50 -68 30 -128 -9 -25 -13 -60 -10 -82 6 -45 -8 -70 -40 -70 -17 0 -19 -4 -13
-37 21 -118 20 -128 -10 -162 -22 -24 -40 -34 -74 -38 l-44 -6 47 -42 48 -42
-20 -53 c-15 -40 -17 -56 -9 -70 16 -25 4 -46 -27 -52 -41 -8 -59 0 -74 32
-13 31 -8 50 13 50 8 0 16 13 18 30 3 22 -2 36 -20 52 -41 39 -74 105 -77 157
-5 71 -80 209 -122 225 -21 8 -96 -78 -103 -118 -5 -29 -7 -31 -50 -31 -38 0
-45 3 -47 20 -1 11 -3 29 -5 40 -2 14 3 21 18 23 23 3 114 153 114 188 0 23
38 87 48 82 4 -2 21 -10 37 -17 17 -7 38 -17 48 -22 10 -6 43 -10 73 -10 63
-1 63 0 11 -82 l-34 -52 56 -115 c45 -92 61 -116 79 -118 32 -5 52 15 52 50 0
16 -13 81 -30 145 -16 63 -30 131 -30 149 0 32 2 34 20 24 11 -6 25 -8 30 -5
5 3 12 -6 15 -20 3 -14 7 -36 10 -50 8 -40 21 -29 38 32 19 67 10 88 -35 79
-21 -4 -31 0 -43 17 -14 20 -14 23 2 34 25 19 73 16 110 -7z m-2158 -77 c-1
-25 -17 -63 -18 -43 -1 8 -4 25 -7 38 -5 16 -2 22 10 22 9 0 16 -8 15 -17z
m2117 1 c-3 -9 -6 -22 -6 -30 0 -9 -4 -12 -10 -9 -17 10 -12 55 6 55 11 0 14
-5 10 -16z m-1986 -249 c-39 -83 -53 -105 -70 -105 -28 0 -26 36 10 177 17 63
30 129 30 147 0 28 4 24 40 -41 l39 -73 -49 -105z m1892 59 c32 -131 32 -164
3 -164 -24 0 -121 210 -106 230 6 8 23 39 39 69 25 50 27 52 30 25 1 -16 17
-88 34 -160z m-1758 -118 c3 -14 18 -29 36 -36 45 -19 60 -46 60 -112 0 -63
10 -73 80 -73 27 0 34 -4 32 -16 -1 -9 4 -19 13 -23 30 -11 15 -42 -17 -37 -5
0 -8 -3 -8 -8 0 -18 -30 -20 -46 -3 -9 9 -44 26 -78 38 l-61 21 3 41 c3 52
-12 90 -40 101 -27 10 -30 49 -8 100 15 37 26 39 34 7z m1594 -1 c18 -38 16
-105 -3 -105 -26 0 -47 -46 -43 -95 l3 -46 -60 -21 c-33 -11 -68 -29 -78 -39
-22 -23 -33 -24 -45 -3 -5 9 -12 15 -15 15 -21 -3 -27 1 -27 14 0 9 7 18 15
21 9 4 14 14 13 23 -2 12 4 15 27 14 17 -2 42 2 58 8 25 11 27 16 27 68 0 64
15 92 59 110 17 8 32 23 35 37 8 31 20 31 34 -1z m-1603 -154 c3 -10 1 -38 -4
-62 -5 -24 -9 -44 -8 -44 1 -1 21 -7 45 -14 l42 -12 -29 -24 c-30 -26 -127
-75 -148 -75 -8 0 -8 7 0 30 10 27 9 33 -16 56 -15 13 -27 26 -27 28 0 2 15
20 34 40 18 21 41 55 51 76 15 33 21 38 36 30 10 -6 20 -18 24 -29z m1681 -68
c39 -48 42 -63 14 -81 -22 -14 -26 -51 -7 -71 10 -11 7 -12 -13 -6 -41 11
-163 79 -162 90 1 5 18 14 39 20 21 7 37 17 36 23 -16 75 -15 90 8 113 l23 23
14 -35 c8 -18 29 -53 48 -76z m-179 -109 c2 -6 -4 -14 -14 -17 -10 -3 -34 -10
-53 -16 l-35 -10 33 30 c33 30 62 35 69 13z m-1379 0 c31 -9 28 -24 -5 -24
-55 -1 -96 -108 -58 -150 16 -18 16 -20 2 -26 -9 -3 -22 -4 -29 -2 -7 3 -21
-3 -31 -13 -65 -60 -391 -85 -513 -39 l-26 10 26 27 c31 31 33 56 6 85 -26 29
-25 41 2 35 13 -3 46 -8 73 -12 28 -3 61 -8 73 -11 13 -3 21 -1 18 4 -3 5 12
6 35 2 28 -5 49 -3 66 5 25 13 56 9 104 -15 l24 -11 -23 18 c-27 22 -20 33 22
33 36 0 176 64 176 80 0 11 23 13 58 4z m1453 -42 c26 -12 60 -24 75 -27 16
-4 44 -11 63 -17 l34 -11 -24 -18 c-24 -18 -24 -18 16 -5 22 8 49 11 60 8 35
-9 177 -14 172 -5 -3 4 14 8 36 8 23 1 55 5 71 9 l29 9 -27 -39 c-32 -47 -32
-61 -4 -91 28 -30 17 -41 -58 -53 -63 -11 -240 -15 -264 -6 -8 3 -26 7 -40 10
-58 9 -109 27 -133 46 -18 14 -34 19 -50 15 -31 -8 -44 11 -24 33 16 17 26
126 14 139 -9 9 -9 25 1 20 4 -2 28 -13 53 -25z m-76 -57 c0 -67 -9 -83 -24
-42 -5 13 -21 31 -35 40 -21 14 -29 15 -45 5 -18 -11 -19 -15 -5 -46 17 -42
18 -65 2 -60 -6 2 -18 23 -26 46 -12 36 -17 42 -34 36 -43 -13 -11 19 37 37
38 15 56 17 73 9 31 -14 32 -13 32 15 0 14 6 25 13 25 8 0 12 -20 12 -65z
m-1360 41 c56 -24 44 -84 -14 -73 -23 5 -31 3 -31 -8 0 -16 -18 -30 -27 -21
-6 6 27 116 34 116 2 0 19 -7 38 -14z m105 -103 c0 -40 -4 -62 -10 -58 -5 3
-10 12 -10 20 0 19 -38 29 -55 15 -8 -6 -19 -9 -25 -5 -14 9 71 104 88 98 8
-4 12 -27 12 -70z m1078 -3 c16 -47 18 -60 7 -60 -15 0 -50 94 -40 110 10 16
12 13 33 -50z m-983 36 c38 -16 43 -30 20 -56 -12 -13 -13 -23 -6 -44 17 -43
-16 -33 -35 12 l-17 37 -10 -28 c-9 -23 -26 -33 -29 -17 -3 16 26 110 33 110
5 0 25 -7 44 -14z m924 -5 c7 -5 10 -14 6 -21 -5 -8 -11 -8 -17 -2 -12 12 -38
5 -38 -9 0 -5 13 -9 29 -9 36 0 59 -25 44 -48 -12 -20 -74 -23 -80 -5 -3 9 4
11 26 7 24 -5 31 -3 31 9 0 10 -11 17 -32 19 -38 4 -51 34 -22 55 21 15 34 16
53 4z m-855 -62 c-6 -46 -5 -51 12 -47 13 2 22 16 28 46 5 24 15 42 22 42 17
0 17 0 3 -56 -6 -25 -19 -48 -28 -53 -17 -9 -55 1 -65 17 -11 18 6 102 21 102
11 0 12 -11 7 -51z m193 43 c10 -6 10 -16 1 -43 -6 -18 -13 -40 -15 -48 -3
-11 -8 -10 -23 4 -11 10 -18 20 -16 22 2 3 0 17 -4 33 -4 16 -6 31 -2 34 8 9
45 7 59 -2z m577 -18 c4 -9 1 -23 -6 -31 -10 -13 -8 -19 10 -33 12 -10 22 -21
22 -24 0 -13 -28 -5 -45 14 -26 29 -43 26 -37 -6 4 -20 1 -25 -9 -22 -21 7
-36 98 -18 109 24 15 76 10 83 -7z m293 -17 c-2 -7 -11 -13 -20 -15 -12 -3
-17 4 -17 23 0 23 2 25 21 15 11 -6 18 -17 16 -23z m-953 -27 c-6 -49 -6 -50
20 -50 16 0 26 -6 26 -14 0 -11 -9 -13 -37 -9 -21 3 -39 7 -41 9 -2 1 -1 27 3
58 5 38 12 56 21 56 12 0 13 -10 8 -50z m556 29 c0 -5 -13 -9 -30 -9 -18 0
-30 -5 -30 -13 0 -9 10 -12 30 -9 40 6 39 -14 -1 -23 -39 -9 -32 -31 9 -27 36
4 43 -13 10 -22 -54 -14 -68 -8 -68 28 0 68 -13 75 -30 16 -21 -73 -40 -75
-65 -8 -11 29 -21 56 -23 60 -2 4 3 8 11 8 9 0 21 -18 30 -42 l14 -43 12 42
c10 38 15 43 49 48 20 4 44 7 52 9 19 3 30 -2 30 -15z m-424 -43 c-6 -35 -4
-45 10 -50 23 -9 26 -4 31 49 4 26 11 45 18 45 15 0 9 -87 -8 -107 -10 -14
-36 -17 -61 -7 -23 9 -23 114 0 114 14 0 15 -7 10 -44z m128 2 l26 -43 0 43
c0 23 5 42 10 42 6 0 10 -27 10 -60 0 -70 -15 -78 -45 -27 l-20 32 -3 -37 c-5
-63 -22 -42 -22 27 0 36 4 65 9 65 6 0 21 -19 35 -42z m90 11 c11 -55 7 -89
-9 -89 -12 0 -15 13 -15 60 0 64 13 80 24 29z"/>
<path d="M1455 1358 c-96 -51 -220 -61 -327 -28 -34 11 -64 20 -65 20 -9 0 -1
-573 8 -610 36 -159 199 -338 390 -430 l46 -22 66 31 c162 77 282 206 344 370
25 65 25 72 27 363 0 164 1 298 1 298 0 -6 -115 -40 -150 -44 -63 -9 -174 13
-243 48 -28 14 -53 26 -54 26 -2 -1 -21 -10 -43 -22z m50 -30 c3 -18 5 -113 3
-211 -2 -97 -1 -177 1 -177 3 0 20 5 38 12 33 12 33 13 33 75 0 62 0 63 -32
72 l-33 9 38 1 c27 1 37 5 37 17 0 9 6 14 13 11 6 -2 11 -12 11 -21 -1 -9 4
-16 12 -16 8 0 14 7 14 15 0 8 6 29 14 47 25 56 29 72 27 96 -2 18 2 23 16 20
10 -2 18 -10 18 -19 0 -19 105 -142 114 -134 3 4 6 14 6 23 0 9 8 18 17 20 19
4 38 -49 38 -104 0 -31 20 -84 31 -84 14 0 8 -186 -7 -240 -45 -158 -171 -310
-321 -388 -45 -23 -84 -42 -87 -42 -3 0 -6 138 -6 308 l0 307 -212 0 -213 0
-3 203 c-1 111 0 202 2 202 3 0 16 -4 31 -10 95 -36 235 -30 330 15 65 30 63
30 70 -7z m99 -26 c16 -4 34 -15 40 -24 13 -22 -9 -97 -32 -105 -9 -4 -23 -13
-30 -20 -19 -19 -50 -16 -56 5 -6 19 -5 143 1 154 3 7 27 4 77 -10z m306 -73
c0 -62 -4 -67 -34 -44 -14 11 -24 12 -39 3 -18 -9 -25 -6 -49 23 -15 18 -28
39 -28 45 0 13 32 24 75 24 17 0 37 4 45 9 23 16 30 3 30 -60z m-623 -333 c4
-3 1 -6 -5 -6 -7 0 -12 -6 -12 -14 0 -7 -13 -16 -30 -19 -18 -4 -35 -17 -44
-34 -8 -15 -28 -41 -45 -57 -17 -17 -31 -37 -32 -45 0 -11 -3 -9 -9 5 -8 19
-15 128 -10 147 3 9 7 25 9 33 1 7 170 -2 178 -10z m161 8 c18 -3 30 -9 27
-14 -3 -5 -1 -11 4 -14 8 -5 8 -20 1 -91 -1 -11 -4 -15 -7 -7 -2 6 -11 12 -18
12 -8 0 -16 9 -20 20 -3 11 -17 28 -31 39 -14 11 -24 22 -22 25 2 3 -5 11 -16
19 -17 13 -16 14 15 15 19 0 49 -1 67 -4z m-104 -46 c21 -29 20 -33 -8 -51
-19 -13 -27 -14 -41 -3 -16 12 -16 15 -1 44 20 38 29 40 50 10z m-12 -112 c34
-48 38 -106 8 -136 -11 -11 -26 -20 -34 -20 -8 0 -16 -5 -18 -12 -7 -21 -80
14 -105 51 -29 43 -33 124 -5 119 13 -2 18 -16 22 -60 3 -38 12 -64 24 -75 18
-18 18 -17 1 17 -14 27 -16 50 -12 111 3 43 8 83 12 88 9 15 71 -34 107 -83z
m75 47 c4 -21 8 -64 8 -95 -1 -46 -5 -63 -25 -85 l-24 -28 28 27 c24 22 30 37
34 82 4 46 8 56 23 56 15 0 19 -7 19 -32 0 -38 -33 -109 -58 -124 -21 -13 -82
-28 -82 -20 0 3 12 22 26 43 29 43 27 80 -6 125 -26 35 -25 42 6 67 36 29 42
27 51 -16z m74 -284 c1 -156 1 -159 -18 -156 -33 5 -138 76 -196 131 -80 78
-74 92 21 49 21 -10 36 -12 45 -6 6 5 33 17 60 27 26 10 47 22 47 27 0 5 7 9
15 9 8 0 15 5 15 12 0 6 2 9 5 6 3 -2 5 -47 6 -99z"/>
<path d="M1736 1135 c2 -27 10 -71 16 -97 11 -43 14 -47 47 -51 20 -2 38 -2
40 0 3 2 7 31 9 65 4 52 2 60 -11 55 -8 -3 -23 3 -32 13 -13 15 -22 17 -36 10
-15 -9 -20 -5 -29 22 -9 30 -9 28 -4 -17z m74 -65 c14 -26 3 -45 -16 -29 -16
13 -19 49 -4 49 5 0 14 -9 20 -20z"/>
<path d="M1310 1125 c-7 -9 -9 -26 -5 -45 4 -20 2 -36 -6 -46 -10 -13 -10 -17
2 -25 19 -12 66 -11 90 1 32 18 22 28 -21 23 -35 -5 -39 -3 -34 11 3 9 -1 27
-10 41 -23 36 -20 42 9 15 14 -13 25 -19 25 -13 0 6 -10 18 -22 27 -23 16 -23
16 6 9 20 -4 27 -3 22 6 -10 16 -41 14 -56 -4z"/>
<path d="M1650 1105 c0 -16 -6 -25 -15 -25 -8 0 -15 -4 -15 -10 0 -21 24 -100
31 -100 19 0 52 38 46 54 -4 10 -11 15 -16 11 -6 -3 -8 13 -4 45 5 42 3 50
-11 50 -10 0 -16 -9 -16 -25z"/>
<path d="M1221 1099 c-11 -11 -21 -25 -21 -31 0 -7 5 -6 13 3 6 8 20 21 30 28
16 13 16 11 2 -22 -8 -19 -11 -38 -7 -42 4 -4 -12 -5 -35 -2 -45 5 -56 -5 -24
-23 24 -12 71 -13 90 -1 12 8 12 12 2 25 -9 10 -10 24 -3 48 8 29 7 34 -8 35
-10 1 -27 -7 -39 -18z"/>
<path d="M1860 1001 c0 -12 6 -21 16 -21 9 0 14 7 12 17 -5 25 -28 28 -28 4z"/>
<path d="M1386 974 c-50 -35 -48 -46 4 -19 16 8 34 24 40 35 13 25 14 25 -44
-16z"/>
<path d="M1141 984 c15 -18 62 -44 80 -44 7 0 -8 14 -34 30 -53 34 -66 37 -46
14z"/>
<path d="M1530 911 c0 -13 66 -17 238 -13 214 5 176 22 -48 22 -113 0 -190 -4
-190 -9z"/>
<path d="M1615 852 c-61 -10 -73 -21 -84 -86 -6 -35 -11 -74 -11 -87 0 -44 18
0 25 63 4 32 13 65 21 73 11 10 44 14 132 14 65 0 123 -3 130 -8 6 -4 17 -42
24 -84 6 -42 15 -77 19 -77 11 0 18 54 8 64 -5 6 -9 25 -9 43 0 37 -36 82 -67
84 -63 3 -172 4 -188 1z"/>
<path d="M1583 762 c-6 -4 13 -7 43 -8 30 0 48 3 41 8 -15 10 -68 10 -84 0z"/>
<path d="M1733 762 c-6 -4 13 -7 42 -7 29 0 48 3 42 7 -7 4 -25 8 -42 8 -16 0
-35 -4 -42 -8z"/>
<path d="M1598 733 c18 -2 45 -2 60 0 15 2 0 4 -33 4 -33 0 -45 -2 -27 -4z"/>
<path d="M1748 733 c18 -2 45 -2 60 0 15 2 0 4 -33 4 -33 0 -45 -2 -27 -4z"/>
<path d="M1588 703 c17 -2 47 -2 65 0 17 2 3 4 -33 4 -36 0 -50 -2 -32 -4z"/>
<path d="M1748 703 c17 -2 47 -2 65 0 17 2 3 4 -33 4 -36 0 -50 -2 -32 -4z"/>
<path d="M1577 682 c-9 -4 11 -8 45 -8 46 -1 55 1 33 6 -39 10 -56 10 -78 2z"/>
<path d="M1555 611 c-5 -9 170 -25 183 -17 5 3 29 6 55 7 25 2 44 6 41 10 -6
10 -273 9 -279 0z"/>
<path d="M827 266 c-6 -15 19 -30 34 -20 6 3 5 11 -2 20 -15 18 -25 18 -32 0z"/>
<path d="M1830 164 c0 -9 7 -14 17 -12 25 5 28 28 4 28 -12 0 -21 -6 -21 -16z"/>
<path d="M2189 1327 c9 -11 27 -17 55 -16 l41 2 -40 6 c-22 4 -47 11 -55 16
-13 8 -13 7 -1 -8z"/>
</g>
</svg>
